<svg width={14} height={14} viewBox="0 0 14 14" fill="none" xmlns="http://www.w3.org/2000/svg">
  <path d="M6.99998 12.334C4.05998 12.334 1.66665 9.94065 1.66665 7.00065C1.66665 4.06065 4.05998 1.66732 6.99998 1.66732C9.93998 1.66732 12.3333 4.06065 12.3333 7.00065C12.3333 9.94065 9.93998 12.334 6.99998 12.334ZM6.99998 0.333984C3.31331 0.333984 0.333313 3.31398 0.333313 7.00065C0.333313 10.6873 3.31331 13.6673 6.99998 13.6673C10.6866 13.6673 13.6666 10.6873 13.6666 7.00065C13.6666 3.31398 10.6866 0.333984 6.99998 0.333984ZM8.72665 4.33398L6.99998 6.06065L5.27331 4.33398L4.33331 5.27398L6.05998 7.00065L4.33331 8.72732L5.27331 9.66732L6.99998 7.94065L8.72665 9.66732L9.66665 8.72732L7.93998 7.00065L9.66665 5.27398L8.72665 4.33398Z" fill="#F13153" />
</svg>

