<svg width="17" height="17" viewBox="0 0 17 17" fill="none" xmlns="http://www.w3.org/2000/svg">
<path fill-rule="evenodd" clip-rule="evenodd" d="M4.5569 0.166016H11.9885C14.7276 0.166016 16.2528 1.64935 16.2528 4.19102V12.7993C16.2528 15.3827 14.7276 16.8327 11.9885 16.8327H4.5569C1.86126 16.8327 0.291763 15.3827 0.291763 12.7993V4.19102C0.291763 1.64935 1.86126 0.166016 4.5569 0.166016ZM4.79632 4.04935V4.04102H7.44674C7.82892 4.04102 8.13927 4.33268 8.13927 4.69018C8.13927 5.05768 7.82892 5.34935 7.44674 5.34935H4.79632C4.41414 5.34935 4.10468 5.05768 4.10468 4.69935C4.10468 4.34102 4.41414 4.04935 4.79632 4.04935ZM4.79632 9.11601H11.7482C12.1295 9.11601 12.4399 8.82435 12.4399 8.46601C12.4399 8.10768 12.1295 7.81518 11.7482 7.81518H4.79632C4.41414 7.81518 4.10468 8.10768 4.10468 8.46601C4.10468 8.82435 4.41414 9.11601 4.79632 9.11601ZM4.79632 12.9243H11.7482C12.102 12.891 12.3689 12.6068 12.3689 12.2743C12.3689 11.9327 12.102 11.6493 11.7482 11.616H4.79632C4.5303 11.591 4.27315 11.7077 4.13128 11.9243C3.9894 12.1327 3.9894 12.4077 4.13128 12.6243C4.27315 12.8327 4.5303 12.9577 4.79632 12.9243Z" fill="#CCE4EA"/>
</svg>
