<svg width="16" height="17" viewBox="0 0 16 17" fill="none" xmlns="http://www.w3.org/2000/svg">
<path fill-rule="evenodd" clip-rule="evenodd" d="M5.54626 12.1577H10.3223C10.6822 12.1577 10.9807 11.8743 10.9807 11.5327C10.9807 11.191 10.6822 10.916 10.3223 10.916H5.54626C5.1863 10.916 4.8878 11.191 4.8878 11.5327C4.8878 11.8743 5.1863 12.1577 5.54626 12.1577ZM8.51371 6.74935H5.54626C5.1863 6.74935 4.8878 7.03268 4.8878 7.37435C4.8878 7.71602 5.1863 7.99102 5.54626 7.99102H8.51371C8.87367 7.99102 9.17217 7.71602 9.17217 7.37435C9.17217 7.03268 8.87367 6.74935 8.51371 6.74935ZM14.7791 6.02069C14.9855 6.01845 15.2102 6.01602 15.4144 6.01602C15.6338 6.01602 15.8094 6.18268 15.8094 6.39102V13.091C15.8094 15.1577 14.0448 16.8327 11.8675 16.8327H4.87902C2.59637 16.8327 0.735125 15.0743 0.735125 12.9077V3.92435C0.735125 1.85768 2.50857 0.166016 4.69465 0.166016H9.38288C9.61114 0.166016 9.78673 0.341016 9.78673 0.549349V3.23268C9.78673 4.75768 11.1124 6.00768 12.7191 6.01602C13.0943 6.01602 13.4252 6.01865 13.7147 6.02096C13.94 6.02275 14.1402 6.02435 14.3169 6.02435C14.4419 6.02435 14.6039 6.02259 14.7791 6.02069ZM15.0212 4.80435C14.2995 4.80685 13.4488 4.80435 12.8369 4.79852C11.8659 4.79852 11.0661 4.03935 11.0661 3.11768V0.921016C11.0661 0.561849 11.5252 0.383516 11.7877 0.642682C12.263 1.11172 12.9161 1.7565 13.5662 2.3983C14.2144 3.03815 14.8595 3.67504 15.3223 4.13185C15.5787 4.38435 15.3908 4.80352 15.0212 4.80435Z" fill="#399AB3"/>
</svg>
