<svg width="14" height="14" viewBox="0 0 14 14" fill="none" xmlns="http://www.w3.org/2000/svg">
<path d="M7.00004 12.334C8.41453 12.334 9.77108 11.7721 10.7713 10.7719C11.7715 9.77169 12.3334 8.41514 12.3334 7.00065C12.3334 5.58616 11.7715 4.22961 10.7713 3.22941C9.77108 2.22922 8.41453 1.66732 7.00004 1.66732C5.58555 1.66732 4.229 2.22922 3.22881 3.22941C2.22861 4.22961 1.66671 5.58616 1.66671 7.00065C1.66671 8.41514 2.22861 9.77169 3.22881 10.7719C4.229 11.7721 5.58555 12.334 7.00004 12.334ZM7.00004 0.333984C7.87552 0.333984 8.74243 0.506423 9.55127 0.841454C10.3601 1.17649 11.095 1.66755 11.7141 2.28661C12.3331 2.90566 12.8242 3.64059 13.1592 4.44943C13.4943 5.25827 13.6667 6.12517 13.6667 7.00065C13.6667 8.76876 12.9643 10.4645 11.7141 11.7147C10.4638 12.9649 8.76815 13.6673 7.00004 13.6673C3.31337 13.6673 0.333374 10.6673 0.333374 7.00065C0.333374 5.23254 1.03575 3.53685 2.286 2.28661C3.53624 1.03636 5.23193 0.333984 7.00004 0.333984ZM7.33338 3.66732V7.16732L10.3334 8.94732L9.83338 9.76732L6.33338 7.66732V3.66732H7.33338Z" fill="#F4921B"/>
</svg>
