<svg width="19" height="17" viewBox="0 0 19 17" fill="none" xmlns="http://www.w3.org/2000/svg">
<path fill-rule="evenodd" clip-rule="evenodd" d="M5.43285 0.166016H13.1207C16.1267 0.166016 18.1396 2.14935 18.1396 5.09935V11.9085C18.1396 14.8493 16.1267 16.8327 13.1207 16.8327H5.43285C2.42686 16.8327 0.405128 14.8493 0.405128 11.9085V5.09935C0.405128 2.14935 2.42686 0.166016 5.43285 0.166016ZM8.76693 10.991L12.9789 7.03268C13.2804 6.74935 13.2804 6.29102 12.9789 5.99935C12.6774 5.71602 12.1808 5.71602 11.8793 5.99935L8.21717 9.44102L6.6654 7.98268C6.36391 7.69935 5.86735 7.69935 5.56586 7.98268C5.26438 8.26602 5.26438 8.72435 5.56586 9.01602L7.67626 10.991C7.82701 11.1327 8.02209 11.1993 8.21717 11.1993C8.42111 11.1993 8.61619 11.1327 8.76693 10.991Z" fill="#CCE4EA"/>
</svg>
