<svg width="295" height="242" viewBox="0 0 295 242" fill="none" xmlns="http://www.w3.org/2000/svg">
<g clip-path="url(#clip0_8021:32755)">
<path d="M294.648 234.601C294.738 244.029 235.326 244.893 234.195 234.601C234.105 225.174 293.517 224.31 294.648 234.601Z" fill="#E6E6E6"/>
<path d="M248.165 201.871L243.749 204.279L246.559 213.512L250.974 213.913L253.383 208.695L248.165 201.871Z" fill="#9F616A"/>
<path d="M261.812 220.336V224.751L268.636 224.35L268.541 220.713L261.812 220.336Z" fill="#9F616A"/>
<path d="M246.559 148.887L248.968 178.992L256.594 223.145L268.636 221.54L264.622 186.618L266.228 154.507L246.559 148.887Z" fill="#225C6B"/>
<path d="M278.671 126.408L249.77 126.81L246.559 148.886L266.228 158.119L271.044 175.78L246.559 201.871L256.193 213.913C256.193 213.913 269.84 195.449 279.875 185.012C289.91 174.576 285.093 142.866 285.093 142.866L278.671 126.408Z" fill="#225C6B"/>
<path d="M261.411 69.4096C266.288 69.4096 270.242 65.4559 270.242 60.5788C270.242 55.7017 266.288 51.748 261.411 51.748C256.534 51.748 252.58 55.7017 252.58 60.5788C252.58 65.4559 256.534 69.4096 261.411 69.4096Z" fill="#9F616A"/>
<path d="M258.2 66.5999V75.4307L264.221 85.0642C264.221 85.0642 273.453 78.2405 271.446 76.6349C269.439 75.0293 269.037 62.5859 269.037 62.5859L258.2 66.5999Z" fill="#9F616A"/>
<path d="M258.2 73.8252L252.179 81.0502L254.587 131.225L273.453 130.823L276.664 87.0713L272.65 75.8321L269.897 72.0859L265.024 79.4446L258.2 73.8252Z" fill="#D0CDE1"/>
<path d="M248.566 99.9165L244.151 116.775L248.566 133.634L241.341 143.267L234.918 112.761C234.918 112.761 239.735 87.8745 240.137 85.0647C240.538 82.2549 241.341 81.8535 241.341 81.8535L244.552 82.2549L248.566 99.9165Z" fill="#225C6B"/>
<path d="M280.678 106.339L283.488 111.557L284.291 120.388L282.685 130.423L288.304 139.655L293.924 114.367L287.903 81.8535H285.495L280.678 106.339Z" fill="#225C6B"/>
<path d="M246.559 201.471C246.559 201.471 240.939 203.076 238.932 203.478C236.925 203.879 240.137 211.506 240.137 211.506C240.137 211.506 242.144 221.942 242.545 223.949C242.946 225.956 245.756 232.78 249.369 233.583C252.981 234.385 250.573 219.534 250.573 219.534C250.573 219.534 252.179 214.717 252.179 213.111C252.179 211.506 249.77 212.308 249.77 212.308C243.348 211.506 246.559 201.471 246.559 201.471Z" fill="#225C6B"/>
<path d="M259.805 232.378C260.207 234.786 259.404 234.786 265.826 235.589C272.249 236.392 270.643 231.173 270.643 231.173C270.375 228.713 269.836 226.29 269.037 223.948C267.833 220.737 261.411 224.751 261.411 224.751C261.411 224.751 259.404 229.969 259.805 232.378Z" fill="#225C6B"/>
<path d="M269.048 62.8658L269.257 66.4356C269.257 66.4356 271.847 60.5785 272.248 54.5575C272.65 48.5365 265.826 47.3323 261.812 46.9309C257.798 46.5295 250.974 49.3393 250.974 52.5505C250.974 55.7617 258.2 54.9589 261.009 54.1561C263.819 53.3533 265.023 60.1771 265.023 60.1771L266.629 60.5785L269.048 62.8658Z" fill="#225C6B"/>
<path d="M255.831 76.6667L258.2 73.8242L265.024 79.4436L258.2 84.2604L255.831 76.6667Z" fill="#D0CDE1"/>
<path d="M272.65 75.8313L269.84 72.2188L265.023 79.4438L271.045 83.8593L272.65 75.8313Z" fill="#D0CDE1"/>
<path d="M247.362 105.535L248.968 120.788L245.756 130.021L243.749 138.851C243.749 138.851 243.749 147.281 251.777 147.682C259.805 148.083 266.629 122.394 266.629 122.394C266.629 122.394 267.833 128.014 268.636 131.225C269.439 134.436 283.086 147.281 283.086 147.281C283.086 147.281 286.298 146.879 289.107 140.457C291.917 134.035 283.488 128.014 283.488 128.014L281.079 119.584L281.882 109.148L287.502 81.8527L270.844 73.2227L272.65 96.3031L266.629 114.366L257.598 74.4269L254.587 76.6345L241.742 81.8527L247.362 105.535Z" fill="#225C6B"/>
<path d="M88.7255 166.248C87.9318 166.242 87.129 166.236 86.3405 166.212L86.365 165.417C87.1453 165.441 87.9432 165.452 88.7257 165.453C89.5116 165.453 90.3125 165.44 91.1069 165.414L91.1326 166.209C90.3294 166.235 89.5198 166.248 88.7255 166.248ZM81.5589 165.912C79.9754 165.762 78.3762 165.559 76.8059 165.308L76.9313 164.523C78.4849 164.771 80.0671 164.972 81.6339 165.12L81.5589 165.912ZM95.9136 165.904L95.8379 165.112C97.4041 164.962 98.986 164.759 100.54 164.509L100.666 165.294C99.0958 165.547 97.4967 165.752 95.9136 165.904H95.9136ZM72.101 164.401C70.5505 164.049 68.9905 163.642 67.4645 163.191L67.6899 162.428C69.1997 162.875 70.743 163.277 72.277 163.625L72.101 164.401ZM105.37 164.381L105.193 163.606C106.731 163.255 108.273 162.851 109.779 162.404L110.005 163.166C108.484 163.618 106.924 164.027 105.37 164.381H105.37ZM62.915 161.686C61.4188 161.136 59.9219 160.531 58.4658 159.887L58.7878 159.16C60.2282 159.797 61.709 160.396 63.1892 160.939L62.915 161.686ZM114.552 161.655L114.277 160.908C115.748 160.366 117.224 159.768 118.663 159.129L118.986 159.856C117.531 160.502 116.039 161.107 114.552 161.655H114.552ZM54.1435 157.805C52.7356 157.07 51.3296 156.278 49.9649 155.45L50.3774 154.77C51.7277 155.589 53.1185 156.373 54.5115 157.1L54.1435 157.805ZM123.296 157.776L122.928 157.071C124.318 156.344 125.706 155.561 127.052 154.742L127.465 155.422C126.104 156.249 124.702 157.041 123.296 157.776H123.296ZM45.9469 152.833C44.6429 151.923 43.3505 150.958 42.1052 149.965L42.6012 149.343C43.8332 150.326 45.112 151.281 46.4021 152.181L45.9469 152.833ZM131.477 152.805L131.021 152.153C132.311 151.252 133.588 150.297 134.817 149.316L135.313 149.937C134.071 150.929 132.78 151.894 131.477 152.805ZM38.4549 146.858C37.2761 145.788 36.1171 144.667 35.0107 143.526L35.5817 142.972C36.6764 144.101 37.8231 145.21 38.9897 146.269L38.4549 146.858ZM138.96 146.83L138.425 146.242C139.588 145.185 140.734 144.075 141.83 142.943L142.401 143.496C141.294 144.64 140.135 145.762 138.96 146.83ZM31.7862 139.982C30.7541 138.772 29.7477 137.513 28.7948 136.241L29.4316 135.764C30.3744 137.023 31.3701 138.268 32.3914 139.465L31.7862 139.982ZM145.625 139.949L145.02 139.433C146.041 138.235 147.037 136.988 147.98 135.727L148.617 136.203C147.664 137.478 146.657 138.738 145.625 139.949V139.949ZM26.0486 132.316C25.1784 130.984 24.341 129.608 23.5595 128.226L24.252 127.834C25.025 129.201 25.8536 130.563 26.7147 131.881L26.0486 132.316ZM151.364 132.273L150.697 131.839C151.559 130.518 152.387 129.154 153.16 127.784L153.853 128.175C153.072 129.56 152.234 130.939 151.364 132.273ZM21.3383 123.985C20.6461 122.554 19.9923 121.083 19.3949 119.612L20.1317 119.313C20.7228 120.767 21.3697 122.223 22.0545 123.639L21.3383 123.985ZM156.075 123.923L155.359 123.578C156.044 122.159 156.691 120.7 157.283 119.238L158.02 119.537C157.422 121.014 156.768 122.49 156.075 123.923ZM17.7345 115.117C17.2313 113.606 16.7717 112.061 16.3681 110.523L17.1375 110.322C17.5366 111.842 17.9914 113.371 18.4892 114.865L17.7345 115.117ZM159.677 115.033L158.922 114.783C159.417 113.29 159.87 111.761 160.268 110.237L161.038 110.438C160.635 111.978 160.177 113.524 159.677 115.033ZM15.301 105.853C14.9971 104.292 14.7399 102.701 14.5366 101.123L15.3254 101.021C15.5266 102.582 15.781 104.156 16.0817 105.7L15.301 105.853ZM162.099 105.765L161.319 105.614C161.617 104.071 161.87 102.496 162.069 100.933L162.858 101.034C162.657 102.614 162.401 104.205 162.099 105.765V105.765ZM14.0767 96.3539C13.9748 94.7684 13.9222 93.1569 13.9204 91.5641L14.7159 91.5633C14.7176 93.1394 14.7696 94.7338 14.8706 96.3026L14.0767 96.3539ZM163.313 96.2649L162.519 96.2144C162.618 94.6472 162.668 93.0528 162.668 91.4763L162.668 91.3019H163.463L163.464 91.4736C163.464 93.0696 163.413 94.6806 163.313 96.2649ZM14.8596 86.8249L14.0657 86.7759C14.1643 85.1874 14.3152 83.5825 14.5143 82.0056L15.3035 82.105C15.1064 83.6656 14.9571 85.2534 14.8596 86.8249ZM162.508 86.5638C162.405 84.9916 162.25 83.4042 162.047 81.846L162.836 81.7434C163.041 83.3184 163.197 84.9225 163.302 86.5118L162.508 86.5638ZM16.0485 77.424L15.2674 77.2737C15.5674 75.7125 15.9228 74.1401 16.3233 72.6001L17.0931 72.8001C16.6969 74.3238 16.3454 75.8793 16.0485 77.424ZM161.285 77.1675C160.982 75.622 160.625 74.0677 160.224 72.5473L160.993 72.3445C161.398 73.8812 161.759 75.4523 162.066 77.0145L161.285 77.1675ZM18.4342 68.2531L17.6788 68.0037C18.1781 66.4923 18.7339 64.9762 19.331 63.4973L20.0686 63.7952C19.4778 65.2582 18.9281 66.758 18.4342 68.2531ZM158.868 68.0051C158.368 66.5121 157.814 65.0166 157.22 63.5599L157.956 63.2597C158.557 64.7321 159.117 66.2437 159.622 67.7527L158.868 68.0051ZM21.9873 59.4529L21.2703 59.108C21.9603 57.6737 22.7064 56.2424 23.4877 54.8543L24.181 55.2446C23.4079 56.6178 22.6699 58.0337 21.9873 59.4529ZM155.292 59.236C154.607 57.8236 153.867 56.4129 153.09 55.0432L153.782 54.6509C154.567 56.0352 155.316 57.4612 156.008 58.8892L155.292 59.236ZM26.6395 51.1864L25.9727 50.7526C26.8402 49.4192 27.7628 48.0957 28.7148 46.8193L29.3525 47.2947C28.4106 48.5577 27.4977 49.867 26.6395 51.1864ZM150.622 50.9992C149.762 49.6847 148.846 48.3795 147.901 47.1199L148.537 46.6425C149.492 47.9157 150.418 49.2349 151.288 50.5634L150.622 50.9992ZM32.3078 43.5853L31.7019 43.0702C32.7322 41.8582 33.8152 40.6635 34.921 39.5195L35.4931 40.0722C34.399 41.2042 33.3274 42.3863 32.3078 43.5853ZM144.936 43.4213C143.914 42.2257 142.839 41.0471 141.742 39.9184L142.312 39.3641C143.421 40.5047 144.507 41.6959 145.541 42.9044L144.936 43.4213ZM38.8949 36.7694L38.3593 36.1814C39.5364 35.1092 40.7622 34.0623 42.0023 33.0699L42.4995 33.691C41.2723 34.6728 40.0595 35.7087 38.8949 36.7694ZM138.33 36.6251C137.163 35.5693 135.947 34.5365 134.715 33.5558L135.21 32.9332C136.456 33.9246 137.685 34.9682 138.863 36.0355L138.33 36.6251ZM46.292 30.8488L45.8356 30.1975C47.1372 29.2853 48.4857 28.4035 49.8437 27.5762L50.2576 28.2555C48.9141 29.074 47.5797 29.9466 46.292 30.8488ZM130.911 30.7222C129.616 29.8209 128.277 28.9513 126.932 28.1374L127.344 27.4569C128.703 28.2794 130.057 29.1583 131.365 30.0693L130.911 30.7222ZM54.3793 25.922L54.0099 25.2174C55.4161 24.4799 56.8656 23.778 58.3176 23.1315L58.6412 23.8582C57.2045 24.4977 55.7707 25.1922 54.3793 25.922ZM122.795 25.8128C121.398 25.0858 119.959 24.3946 118.517 23.7584L118.838 23.0305C120.296 23.6735 121.751 24.3723 123.163 25.1071L122.795 25.8128ZM63.0252 22.0739L62.7491 21.3278C64.2405 20.7761 65.7699 20.2657 67.2947 19.8111L67.5219 20.5735C66.0134 21.0231 64.5006 21.528 63.0252 22.0739H63.0252ZM114.113 21.9836C112.635 21.4428 111.12 20.9433 109.611 20.4993L109.836 19.7361C111.361 20.1849 112.892 20.6898 114.387 21.2367L114.113 21.9836ZM72.106 19.3666L71.9285 18.5913C73.4761 18.2367 75.0583 17.9277 76.6311 17.6724L76.7585 18.4577C75.2024 18.7102 73.6371 19.0158 72.106 19.3666ZM105.023 19.3087C103.489 18.963 101.922 18.6628 100.367 18.4162L100.491 17.6304C102.064 17.8798 103.647 18.1833 105.197 18.5327L105.023 19.3087ZM81.4597 17.8489L81.3828 17.0573C82.962 16.9041 84.5706 16.7994 86.1636 16.7464L86.19 17.5415C84.6137 17.5939 83.0222 17.6974 81.4597 17.8489ZM95.6635 17.8242C94.0986 17.678 92.5066 17.5801 90.9322 17.5333L90.9559 16.7383C92.5469 16.7857 94.1559 16.8845 95.7375 17.0323L95.6635 17.8242Z" fill="#D0CDE1"/>
<path d="M85.9078 37.3858C96.2316 37.3858 104.601 29.0167 104.601 18.6929C104.601 8.3691 96.2316 0 85.9078 0C75.5839 0 67.2148 8.3691 67.2148 18.6929C67.2148 29.0167 75.5839 37.3858 85.9078 37.3858Z" fill="#173E48"/>
<path d="M158.293 88.294C168.617 88.294 176.986 79.9249 176.986 69.6011C176.986 59.2773 168.617 50.9082 158.293 50.9082C147.969 50.9082 139.6 59.2773 139.6 69.6011C139.6 79.9249 147.969 88.294 158.293 88.294Z" fill="#173E48"/>
<path d="M135.623 166.247C145.947 166.247 154.316 157.878 154.316 147.554C154.316 137.23 145.947 128.861 135.623 128.861C125.299 128.861 116.93 137.23 116.93 147.554C116.93 157.878 125.299 166.247 135.623 166.247Z" fill="#173E48"/>
<path d="M45.7381 169.429C56.0619 169.429 64.431 161.06 64.431 150.736C64.431 140.412 56.0619 132.043 45.7381 132.043C35.4143 132.043 27.0452 140.412 27.0452 150.736C27.0452 161.06 35.4143 169.429 45.7381 169.429Z" fill="#173E48"/>
<path d="M18.6929 88.294C29.0167 88.294 37.3858 79.9249 37.3858 69.6011C37.3858 59.2773 29.0167 50.9082 18.6929 50.9082C8.3691 50.9082 0 59.2773 0 69.6011C0 79.9249 8.3691 88.294 18.6929 88.294Z" fill="#173E48"/>
<path d="M93.9185 17.2017H87.3983C86.8054 17.2017 86.2368 16.9662 85.8176 16.547C85.3983 16.1277 85.1628 15.5591 85.1628 14.9662V8.44605C85.1628 8.42159 85.158 8.39736 85.1486 8.37476C85.1393 8.35216 85.1255 8.33162 85.1082 8.31432C85.091 8.29703 85.0704 8.2833 85.0478 8.27394C85.0252 8.26458 85.001 8.25977 84.9765 8.25977H80.6918C79.9013 8.25977 79.1432 8.57379 78.5842 9.13277C78.0252 9.69175 77.7112 10.4499 77.7112 11.2404V26.1437C77.7112 26.9342 78.0252 27.6923 78.5842 28.2513C79.1432 28.8103 79.9013 29.1243 80.6918 29.1243H91.1241C91.9147 29.1243 92.6728 28.8103 93.2318 28.2513C93.7908 27.6923 94.1048 26.9342 94.1048 26.1437V17.388C94.1048 17.3635 94.1 17.3393 94.0906 17.3167C94.0812 17.2941 94.0675 17.2736 94.0502 17.2563C94.0329 17.239 94.0124 17.2253 93.9898 17.2159C93.9672 17.2065 93.9429 17.2017 93.9185 17.2017ZM89.6338 24.6533H82.1822C81.9845 24.6533 81.795 24.5748 81.6553 24.4351C81.5155 24.2954 81.437 24.1058 81.437 23.9082C81.437 23.7106 81.5155 23.521 81.6553 23.3813C81.795 23.2415 81.9845 23.163 82.1822 23.163H89.6338C89.8314 23.163 90.021 23.2415 90.1607 23.3813C90.3004 23.521 90.379 23.7106 90.379 23.9082C90.379 24.1058 90.3004 24.2954 90.1607 24.4351C90.021 24.5748 89.8314 24.6533 89.6338 24.6533ZM89.6338 20.9275H82.1822C81.9845 20.9275 81.795 20.849 81.6553 20.7093C81.5155 20.5695 81.437 20.38 81.437 20.1824C81.437 19.9847 81.5155 19.7952 81.6553 19.6555C81.795 19.5157 81.9845 19.4372 82.1822 19.4372H89.6338C89.8314 19.4372 90.021 19.5157 90.1607 19.6555C90.3004 19.7952 90.379 19.9847 90.379 20.1824C90.379 20.38 90.3004 20.5695 90.1607 20.7093C90.021 20.849 89.8314 20.9275 89.6338 20.9275Z" fill="white"/>
<path d="M93.5095 15.5528L86.8119 8.85521C86.7989 8.84226 86.7823 8.83345 86.7643 8.82989C86.7463 8.82633 86.7276 8.82818 86.7106 8.8352C86.6937 8.84221 86.6791 8.85409 86.6689 8.86933C86.6587 8.88458 86.6532 8.90252 86.6531 8.92088V14.9665C86.6531 15.1641 86.7316 15.3536 86.8713 15.4934C87.0111 15.6331 87.2006 15.7116 87.3982 15.7116H93.4438C93.4622 15.7116 93.4801 15.7061 93.4954 15.6958C93.5106 15.6856 93.5225 15.6711 93.5295 15.6541C93.5365 15.6371 93.5384 15.6185 93.5348 15.6004C93.5313 15.5824 93.5225 15.5659 93.5095 15.5528L93.5095 15.5528Z" fill="white"/>
<path d="M138.327 143.873C138.098 143.873 137.876 143.953 137.698 144.098C137.521 144.244 137.4 144.446 137.356 144.671C137.311 144.896 137.346 145.129 137.454 145.331C137.562 145.533 137.737 145.692 137.949 145.779C138.16 145.867 138.396 145.878 138.615 145.812C138.835 145.745 139.024 145.604 139.151 145.414C139.279 145.223 139.336 144.994 139.313 144.766C139.291 144.538 139.19 144.325 139.028 144.163C138.935 144.071 138.826 143.998 138.706 143.948C138.586 143.899 138.457 143.873 138.327 143.873Z" fill="white"/>
<path d="M143.842 139.91V139.907C143.811 139.77 143.741 139.643 143.642 139.543C143.543 139.443 143.418 139.372 143.28 139.339C142.174 139.069 140.434 139.357 138.506 140.129C136.652 140.85 134.955 141.924 133.511 143.292C133.116 143.685 132.75 144.104 132.414 144.548C131.672 144.497 130.929 144.616 130.24 144.897C128.097 145.84 127.485 148.254 127.322 149.245C127.298 149.386 127.308 149.53 127.349 149.667C127.39 149.803 127.463 149.929 127.56 150.033C127.658 150.137 127.778 150.217 127.912 150.267C128.046 150.317 128.189 150.336 128.331 150.321H128.336L130.723 150.061C130.726 150.091 130.73 150.119 130.732 150.145C130.763 150.436 130.893 150.707 131.1 150.914L132.265 152.08C132.471 152.287 132.743 152.417 133.034 152.447L133.113 152.456L132.854 154.84V154.845C132.841 154.966 132.853 155.089 132.887 155.206C132.922 155.322 132.98 155.431 133.056 155.526C133.133 155.62 133.228 155.699 133.335 155.757C133.442 155.815 133.56 155.851 133.681 155.864C133.71 155.867 133.738 155.868 133.767 155.868C133.819 155.868 133.87 155.864 133.921 155.856C134.918 155.695 137.33 155.091 138.271 152.936C138.55 152.25 138.669 151.51 138.622 150.771C139.067 150.436 139.488 150.069 139.882 149.674C141.249 148.243 142.324 146.56 143.048 144.718C143.816 142.812 144.105 141.059 143.842 139.91ZM139.868 146.401C139.563 146.707 139.175 146.915 138.752 146.999C138.329 147.083 137.89 147.04 137.491 146.876C137.093 146.711 136.752 146.431 136.512 146.073C136.272 145.714 136.144 145.292 136.144 144.861C136.143 144.429 136.271 144.008 136.511 143.649C136.75 143.29 137.091 143.01 137.489 142.845C137.888 142.68 138.326 142.636 138.75 142.72C139.173 142.804 139.561 143.012 139.867 143.317L139.868 143.318C140.277 143.721 140.509 144.27 140.514 144.843C140.518 145.417 140.294 145.969 139.891 146.378L139.868 146.401Z" fill="white"/>
<path d="M132.131 152.396C131.988 152.378 131.842 152.414 131.723 152.495C131.486 152.658 131.247 152.818 131.007 152.974C130.903 153.041 130.779 153.072 130.655 153.06C130.531 153.048 130.415 152.995 130.325 152.909C130.235 152.824 130.177 152.711 130.159 152.588C130.141 152.465 130.166 152.339 130.228 152.232L130.678 151.452C130.743 151.358 130.779 151.247 130.782 151.133C130.785 151.019 130.755 150.906 130.696 150.809C130.636 150.711 130.55 150.633 130.447 150.583C130.344 150.533 130.229 150.514 130.116 150.528C129.615 150.591 129.15 150.819 128.793 151.176C128.657 151.312 128.244 151.726 128.022 153.301C127.959 153.754 127.919 154.209 127.903 154.666C127.901 154.744 127.914 154.822 127.942 154.894C127.97 154.967 128.012 155.034 128.066 155.09C128.119 155.147 128.184 155.192 128.255 155.224C128.326 155.256 128.403 155.273 128.481 155.275C128.486 155.275 128.491 155.275 128.496 155.275H128.511C128.968 155.259 129.424 155.219 129.877 155.156C131.453 154.934 131.867 154.52 132.003 154.384C132.361 154.027 132.589 153.56 132.648 153.058C132.667 152.901 132.624 152.744 132.527 152.62C132.43 152.496 132.287 152.416 132.131 152.396Z" fill="white"/>
<path d="M39.3047 160.894H37.9503C37.6809 160.894 37.4226 160.787 37.2321 160.596C37.0416 160.406 36.9346 160.147 36.9346 159.878V153.783C36.9346 153.514 37.0416 153.256 37.2321 153.065C37.4226 152.875 37.6809 152.768 37.9503 152.768H39.3047C39.5741 152.768 39.8325 152.875 40.023 153.065C40.2135 153.256 40.3205 153.514 40.3205 153.783V159.878C40.3205 160.147 40.2135 160.406 40.023 160.596C39.8325 160.787 39.5741 160.894 39.3047 160.894Z" fill="white"/>
<path d="M48.7854 160.894H47.4311C47.1617 160.894 46.9033 160.787 46.7128 160.597C46.5223 160.406 46.4153 160.148 46.4153 159.879V149.721C46.4153 149.451 46.5223 149.193 46.7128 149.003C46.9033 148.812 47.1617 148.705 47.4311 148.705H48.7854C49.0548 148.705 49.3132 148.812 49.5037 149.003C49.6942 149.193 49.8012 149.451 49.8012 149.721V159.879C49.8012 160.148 49.6942 160.406 49.5037 160.597C49.3132 160.787 49.0548 160.894 48.7854 160.894Z" fill="white"/>
<path d="M53.5254 160.894H52.171C51.9016 160.894 51.6433 160.787 51.4528 160.597C51.2623 160.406 51.1553 160.148 51.1553 159.879V144.981C51.1553 144.711 51.2623 144.453 51.4528 144.262C51.6433 144.072 51.9016 143.965 52.171 143.965H53.5254C53.7948 143.965 54.0532 144.072 54.2437 144.262C54.4342 144.453 54.5412 144.711 54.5412 144.981V159.879C54.5412 160.148 54.4342 160.406 54.2437 160.597C54.0532 160.787 53.7948 160.894 53.5254 160.894Z" fill="white"/>
<path d="M44.0452 160.894H42.6908C42.4214 160.894 42.1631 160.787 41.9726 160.596C41.7821 160.406 41.675 160.147 41.675 159.878V141.594C41.675 141.324 41.7821 141.066 41.9726 140.876C42.1631 140.685 42.4214 140.578 42.6908 140.578H44.0452C44.3146 140.578 44.573 140.685 44.7635 140.876C44.954 141.066 45.061 141.324 45.061 141.594V159.878C45.061 160.011 45.0347 160.143 44.9836 160.267C44.9326 160.39 44.8578 160.502 44.7634 160.596C44.6691 160.69 44.5571 160.765 44.4339 160.816C44.3107 160.867 44.1786 160.894 44.0452 160.894Z" fill="white"/>
<path d="M159.189 69.1123L158.221 68.1443C157.999 67.9226 157.699 67.7977 157.385 67.7969C157.072 67.796 156.771 67.9194 156.548 68.1399L149.821 74.3484C149.574 74.567 149.423 74.874 149.4 75.203C149.393 75.3664 149.42 75.5295 149.478 75.6822C149.537 75.8348 149.627 75.9737 149.741 76.0902L151.187 77.5515L151.189 77.5541C151.413 77.7767 151.715 77.9021 152.03 77.9032H152.074C152.237 77.894 152.397 77.8527 152.544 77.7817C152.692 77.7106 152.824 77.6113 152.933 77.4892L159.184 70.7926C159.408 70.5711 159.534 70.2701 159.535 69.9555C159.537 69.641 159.413 69.3388 159.192 69.1155L159.189 69.1123Z" fill="white"/>
<path d="M166.965 67.1563L166.954 67.1449L165.684 65.8878C165.609 65.8136 165.521 65.755 165.424 65.7151C165.327 65.6753 165.222 65.6552 165.117 65.6558C164.947 65.656 164.781 65.7096 164.643 65.8092C164.643 65.7933 164.646 65.7777 164.647 65.764C164.698 65.4394 164.63 65.1072 164.454 64.8294C164.174 64.4522 163.867 64.0962 163.535 63.7643L163.532 63.7613C162.604 62.8706 161.513 62.1668 160.318 61.6882C159.694 61.432 159.026 61.3005 158.351 61.3009C157.478 61.293 156.629 61.5903 155.951 62.1414C155.759 62.3256 155.583 62.5268 155.426 62.7425C155.351 62.8459 155.312 62.9707 155.313 63.0984C155.315 63.226 155.358 63.3497 155.436 63.4511C155.513 63.5524 155.621 63.626 155.744 63.6608C155.867 63.6957 155.998 63.69 156.117 63.6446C156.221 63.6057 156.327 63.5732 156.435 63.5471C156.66 63.4996 156.89 63.4852 157.119 63.5045C157.593 63.554 158.048 63.7207 158.442 63.9896C158.662 64.1756 158.838 64.4093 158.955 64.6731C159.072 64.9369 159.128 65.2239 159.118 65.5124C158.954 65.9811 158.702 66.4146 158.377 66.7902C158.29 66.9044 158.248 67.0463 158.258 67.1894C158.268 67.3325 158.329 67.4671 158.431 67.5684L159.706 68.8436C159.813 68.951 159.957 69.0133 160.109 69.0176C160.261 69.0218 160.408 68.9678 160.521 68.8666C160.882 68.5446 161.431 68.0591 161.623 67.9401C161.787 67.8303 161.973 67.757 162.168 67.7252C162.313 67.7109 162.459 67.7417 162.586 67.8134C162.587 67.8197 162.586 67.8261 162.584 67.8322C162.582 67.8383 162.579 67.8438 162.575 67.8486L162.507 67.9127L162.496 67.9231C162.346 68.0724 162.262 68.2751 162.262 68.4866C162.261 68.6981 162.345 68.9011 162.494 69.0509L162.498 69.0549L163.768 70.3115C163.842 70.3856 163.93 70.4443 164.028 70.484C164.125 70.5238 164.229 70.5439 164.334 70.5432C164.545 70.5435 164.747 70.461 164.898 70.3134L166.955 68.2818C166.962 68.2748 166.969 68.2674 166.976 68.2599C167.114 68.1087 167.189 67.9108 167.187 67.7061C167.185 67.5014 167.106 67.305 166.965 67.1563Z" fill="white"/>
<path d="M21.6609 68.4886C21.5142 68.4886 21.3707 68.4451 21.2487 68.3636C21.1267 68.282 21.0316 68.1661 20.9754 68.0306C20.9193 67.895 20.9046 67.7458 20.9332 67.6019C20.9618 67.4579 21.0325 67.3257 21.1363 67.222L22.8375 65.5207L21.1363 63.8194C20.9971 63.6802 20.9189 63.4915 20.9189 63.2947C20.9189 63.0979 20.9971 62.9092 21.1363 62.7701C21.2754 62.6309 21.4641 62.5527 21.6609 62.5527C21.8577 62.5527 22.0464 62.6309 22.1856 62.7701L24.4115 64.996C24.4804 65.0649 24.5351 65.1467 24.5724 65.2367C24.6097 65.3267 24.6289 65.4232 24.6289 65.5207C24.6289 65.6181 24.6097 65.7146 24.5724 65.8046C24.5351 65.8946 24.4804 65.9764 24.4115 66.0453L22.1856 68.2713C22.1167 68.3403 22.035 68.395 21.9449 68.4323C21.8549 68.4696 21.7584 68.4887 21.6609 68.4886Z" fill="white"/>
<path d="M9.78911 70.7152C9.69167 70.7152 9.59518 70.696 9.50516 70.6587C9.41513 70.6214 9.33334 70.5668 9.26444 70.4979C9.19553 70.429 9.14088 70.3472 9.10359 70.2571C9.06631 70.1671 9.04712 70.0706 9.04712 69.9732V69.2312C9.05294 68.0527 9.52355 66.924 10.3567 66.0904C11.1899 65.2569 12.3183 64.7857 13.4968 64.7793H23.1449C23.3416 64.7793 23.5304 64.8575 23.6695 64.9966C23.8087 65.1358 23.8868 65.3245 23.8868 65.5213C23.8868 65.7181 23.8087 65.9068 23.6695 66.0459C23.5304 66.1851 23.3416 66.2633 23.1449 66.2633H13.499C12.7129 66.2679 11.9604 66.5824 11.4047 67.1385C10.8491 67.6946 10.5352 68.4473 10.5311 69.2334V69.9732C10.5311 70.0706 10.5119 70.1671 10.4746 70.2571C10.4373 70.3472 10.3827 70.429 10.3138 70.4979C10.2449 70.5668 10.1631 70.6214 10.0731 70.6587C9.98304 70.696 9.88655 70.7152 9.78911 70.7152Z" fill="white"/>
<path d="M15.725 76.6502C15.6276 76.6504 15.5311 76.6312 15.441 76.5939C15.351 76.5566 15.2692 76.5019 15.2004 76.4329L12.9744 74.2069C12.9055 74.138 12.8509 74.0563 12.8136 73.9662C12.7763 73.8762 12.7571 73.7797 12.7571 73.6823C12.7571 73.5849 12.7763 73.4884 12.8136 73.3983C12.8509 73.3083 12.9055 73.2265 12.9744 73.1576L15.2004 70.9317C15.3396 70.7927 15.5282 70.7148 15.7249 70.7148C15.9216 70.7149 16.1101 70.7931 16.2492 70.9322C16.3883 71.0712 16.4664 71.2598 16.4665 71.4565C16.4666 71.6531 16.3886 71.8418 16.2497 71.981L14.5484 73.6823L16.2497 75.3836C16.3534 75.4874 16.4241 75.6196 16.4527 75.7635C16.4814 75.9074 16.4667 76.0566 16.4105 76.1922C16.3544 76.3278 16.2593 76.4436 16.1373 76.5252C16.0152 76.6067 15.8718 76.6502 15.725 76.6502Z" fill="white"/>
<path d="M14.241 74.4242C14.0442 74.4242 13.8555 74.346 13.7163 74.2068C13.5772 74.0677 13.499 73.879 13.499 73.6822C13.499 73.4854 13.5772 73.2967 13.7163 73.1575C13.8555 73.0184 14.0442 72.9402 14.241 72.9402H23.8868C24.6729 72.9355 25.4254 72.621 25.9811 72.065C26.5367 71.5089 26.8507 70.7561 26.8547 69.97V69.2303C26.8547 69.0335 26.9329 68.8448 27.0721 68.7056C27.2112 68.5665 27.3999 68.4883 27.5967 68.4883C27.7935 68.4883 27.9823 68.5665 28.1214 68.7056C28.2605 68.8448 28.3387 69.0335 28.3387 69.2303V69.9723C28.3329 71.1508 27.8623 72.2795 27.0291 73.113C26.196 73.9466 25.0675 74.4178 23.889 74.4242L14.241 74.4242Z" fill="white"/>
</g>
<defs>
<clipPath id="clip0_8021:32755">
<rect width="294.648" height="242" fill="white"/>
</clipPath>
</defs>
</svg>
