<svg width="19" height="17" viewBox="0 0 19 17" fill="none" xmlns="http://www.w3.org/2000/svg">
<path fill-rule="evenodd" clip-rule="evenodd" d="M8.1234 1.43183C7.52899 1.43183 7.02331 1.82002 6.88136 2.34322H11.6543C11.5124 1.82002 11.0067 1.43183 10.4123 1.43183H8.1234ZM13.0028 2.34322H14.7594C16.6225 2.34322 18.1395 3.78625 18.1395 5.55839C18.1395 5.55839 18.0863 6.3086 18.0685 7.35332C18.0668 7.43602 18.0242 7.51703 17.9541 7.56598C17.5274 7.86218 17.137 8.1069 17.1015 8.12378C15.6288 9.05205 13.9175 9.70521 12.0944 10.0301C11.9755 10.052 11.8584 9.99381 11.798 9.89424C11.287 9.06217 10.3324 8.5204 9.26784 8.5204C8.21034 8.5204 7.24687 9.05627 6.72078 9.88917C6.65957 9.98706 6.54424 10.0436 6.42624 10.0225C4.6182 9.69677 2.90685 9.04445 1.44302 8.13222L0.591344 7.57526C0.520371 7.53307 0.476012 7.45712 0.476012 7.37273C0.449397 6.94235 0.405039 5.55839 0.405039 5.55839C0.405039 3.78625 1.9221 2.34322 3.78515 2.34322H5.53287C5.70143 1.1196 6.79264 0.166016 8.1234 0.166016H10.4123C11.743 0.166016 12.8343 1.1196 13.0028 2.34322ZM17.8379 9.17871L17.8024 9.19559C16.0103 10.3264 13.8545 11.0774 11.5922 11.3897C11.2728 11.4319 10.9535 11.2378 10.8647 10.934C10.6696 10.242 10.0397 9.7863 9.28559 9.7863H9.27671H9.25897C8.50488 9.7863 7.87499 10.242 7.67981 10.934C7.59109 11.2378 7.27172 11.4319 6.95233 11.3897C4.69006 11.0774 2.53424 10.3264 0.742162 9.19559C0.733291 9.18715 0.644574 9.13652 0.573601 9.17871C0.493755 9.22091 0.493755 9.32217 0.493755 9.32217L0.555857 13.6259C0.555857 15.3981 2.06404 16.8327 3.92709 16.8327H14.6086C16.4716 16.8327 17.9798 15.3981 17.9798 13.6259L18.0508 9.32217C18.0508 9.32217 18.0508 9.22091 17.971 9.17871C17.9266 9.15339 17.8734 9.16183 17.8379 9.17871ZM9.93322 12.7146C9.93322 13.069 9.64045 13.3475 9.26784 13.3475C8.9041 13.3475 8.60247 13.069 8.60247 12.7146V11.626C8.60247 11.28 8.9041 10.993 9.26784 10.993C9.64045 10.993 9.93322 11.28 9.93322 11.626V12.7146Z" fill="#CCE4EA"/>
</svg>
